<svg xmlns="http://www.w3.org/2000/svg" viewBox="0 0 284.9 96.8"><title>avertia-gt</title><g id="Capa_2" data-name="Capa 2"><g id="Capa_1-2" data-name="Capa 1"><path d="M.6,52.4a27.9,27.9,0,0,1,1-2.8,13.4,13.4,0,0,1,8.1-7.3,24.2,24.2,0,0,1,5-1.2l6.5-.9,5.3-.6,4.1-.6a3.8,3.8,0,0,0,3.1-2.7,8.7,8.7,0,0,0,.3-5.1A7.3,7.3,0,0,0,29.3,26,17.9,17.9,0,0,0,25,25a20.4,20.4,0,0,0-6.7.3A8.9,8.9,0,0,0,11,32.4l-.3,1.5c-.2.7-.4.9-1.2,1H3.3c-.5,0-.8-.3-.8-.8a13.7,13.7,0,0,1,.1-1.6,18.1,18.1,0,0,1,1.8-6.2,13.6,13.6,0,0,1,8.1-6.8,35.3,35.3,0,0,1,7.3-1.7,27.1,27.1,0,0,1,16,2.9,11.9,11.9,0,0,1,5.8,6.3,14.9,14.9,0,0,1,.9,5.5q0,7.2,0,14.4c0,4.7,0,9.3,0,14a9.8,9.8,0,0,0,.2,1.8,2.1,2.1,0,0,0,2.3,1.9l1.5-.2h.7c.6,0,.8.2.8.8s0,.3,0,.4,0,2.7,0,4-.2,1.1-.9,1.3a13.4,13.4,0,0,1-8.1,0,6.1,6.1,0,0,1-4.4-5l-.3-1.4c0-.2-.1-.5-.1-.8l-.3.4a15.4,15.4,0,0,1-3.1,3,23.1,23.1,0,0,1-9.6,4.5,22.9,22.9,0,0,1-6.9.3,23,23,0,0,1-5-1A13,13,0,0,1,.7,61.7c-.1-.4-.2-.8-.3-1.2A16.9,16.9,0,0,1,.6,52.4Zm33.1-7.9-.4.2a9.3,9.3,0,0,1-3,1.1l-7.9,1.3-5.3.8a13.5,13.5,0,0,0-4.8,1.8A6.7,6.7,0,0,0,9,54.3a10.3,10.3,0,0,0,.1,4.2,7,7,0,0,0,5.6,5.7,17.8,17.8,0,0,0,5.9.2,17.2,17.2,0,0,0,10.5-5.3A8.6,8.6,0,0,0,33.7,53c0-2.7,0-5.4,0-8.1Z" style="fill:#5f5f5f"/><path d="M223.2,0c0,1.2,0,2.5,0,3.7s0,3.5,0,5.3-.1.8-.7.9h-7.2c-.6,0-.7-.1-.7-.7s0-.7,0-1V0Z" style="fill:#5f5f5f"/><path d="M96.7,93.8a.3.3,0,0,1,0-.1h0Z" style="fill:#eeb3b4"/><path d="M281,64.2v6a.4.4,0,0,1-.3.4l-3.7.7a11.2,11.2,0,0,1-5.5-.8,5.6,5.6,0,0,1-3-2.9,12.1,12.1,0,0,1-.9-3.1V64a2.2,2.2,0,0,0-.9.7A23.5,23.5,0,0,1,254,71.5a22.7,22.7,0,0,1-11.4-.7,13.1,13.1,0,0,1-9.2-10.4,17.8,17.8,0,0,1,.5-9.1,13.7,13.7,0,0,1,9-9.2,22.9,22.9,0,0,1,4.7-1l6.6-.9,6.2-.7,3.1-.5a3.8,3.8,0,0,0,3.1-2.7,8.6,8.6,0,0,0,.3-5.1,7.3,7.3,0,0,0-4.7-5.2,17.8,17.8,0,0,0-4.3-1,20,20,0,0,0-6.8.3,9,9,0,0,0-7.3,7.7,9.1,9.1,0,0,1-.2,1,1.1,1.1,0,0,1-1.1.9h-6.2c-.6,0-.8-.2-.8-.8s.1-1,.1-1.4a19.9,19.9,0,0,1,1.4-5.4,13.8,13.8,0,0,1,8-7.6,26.2,26.2,0,0,1,5.7-1.5,35.3,35.3,0,0,1,6.4-.5,26.4,26.4,0,0,1,10.9,2.5,13.3,13.3,0,0,1,5.3,4.3,11.6,11.6,0,0,1,2.1,5.7c.1.8.1,1.7.1,2.5q0,13.8,0,27.5c0,.7,0,1.3.1,2a4.2,4.2,0,0,0,.2.8,1.7,1.7,0,0,0,1.3,1.2,5.8,5.8,0,0,0,3,0l.7-.2A.2.2,0,0,1,281,64.2ZM266.9,44.4a12,12,0,0,1-3.3,1.3c-3.2.7-6.5,1.2-9.8,1.6l-4.2.7a12.5,12.5,0,0,0-4.8,2.1,6.1,6.1,0,0,0-2.6,4,10.6,10.6,0,0,0,.6,6.1,6.3,6.3,0,0,0,4.3,3.8l1.2.3a18.3,18.3,0,0,0,7.5-.1,17.5,17.5,0,0,0,8.3-4.8,8.9,8.9,0,0,0,2.8-6.5q0-4,0-8.1Z" style="fill:#5f5f5f"/><path d="M117.6,48.3H99.8c-.6-.1-.8-.3-.8-.9s0-1.5.1-2.2.3-3.6.5-5.5a30.7,30.7,0,0,1,4.3-12.3,18.5,18.5,0,0,1,11.8-8.5,22.7,22.7,0,0,1,5.1-.6,26.3,26.3,0,0,1,10.7,2.1,21,21,0,0,1,11.3,11.7,33.7,33.7,0,0,1,1.9,7,41.4,41.4,0,0,1,.7,9.4,29.3,29.3,0,0,1-3.6,13.3,20.4,20.4,0,0,1-14.4,10.3,29.9,29.9,0,0,1-7,.4,24.1,24.1,0,0,1-5-.6,20,20,0,0,1-14.1-11.7,25.2,25.2,0,0,1-1.4-4.3v-.2c-.1-.5,0-.7.6-.7h7.2a.8.8,0,0,1,.9.6,25.8,25.8,0,0,0,1.1,2.5,12.8,12.8,0,0,0,8.7,6.7,16,16,0,0,0,7-.1,14.3,14.3,0,0,0,5-2.1,12.4,12.4,0,0,0,5-7.1,18.6,18.6,0,0,0,.7-4.1c0-.6.1-1.1.2-1.7v-.2c.1-.9-.1-1.2-1-1.2H117.6Zm4.4-6.9h13.1c.8,0,1.1-.3,1-1.1s-.1-.8-.2-1.3a17.7,17.7,0,0,0-1.9-5.7,14.3,14.3,0,0,0-15.8-6.9,12.1,12.1,0,0,0-8.9,7.7,22.7,22.7,0,0,0-1.2,4.7c-.1.5-.2,1.1-.2,1.6s.2.8.7.9Z" style="fill:#ce1c21"/><path d="M71.6,60.9l.2-.5L85.6,20.5l.2-.5a1.2,1.2,0,0,1,1.2-.8h7.8c.3.1.5.2.4.6a3.9,3.9,0,0,1-.2.9L89,36.2,76.7,68.9v.2c-.4,1.1-.7,1.3-1.9,1.3H68.4c-1.1,0-1.6-.1-2.1-1.4L62.5,58.3,50,23.9l-1.2-3.3a4.3,4.3,0,0,1-.2-.8.5.5,0,0,1,.5-.7h8.4a1.2,1.2,0,0,1,1,.7l.3.8L68,49.7l3.2,10.1Z" style="fill:#5f5f5f"/><path d="M189.3,44.6q0-8.4,0-16.7a5.8,5.8,0,0,0,0-.7.8.8,0,0,0-.9-.8h-5.3a.7.7,0,0,1-.6-.6,1.9,1.9,0,0,1,0-.3c0-1.8,0-3.5,0-5.3s.2-.9.9-.9h5.2c.5-.1.6-.2.7-.8s0-.5,0-.8q0-5.6,0-11.1a5.5,5.5,0,0,1,0-.7.9.9,0,0,1,.9-.9h6.2c1.3,0,1.5.2,1.5,1.4V17.7c0,.1,0,.2,0,.2s.3,1.2,1.2,1.2h5.7c1.1,0,1.2.1,1.2,1.2s0,3.2,0,4.8c0,.1,0,.1,0,.2s-.2,1-1,1h-6.5a.7.7,0,0,0-.7.7,4.7,4.7,0,0,0,0,.6q0,15.9,0,31.9a6.7,6.7,0,0,0,.2,1.6,2.8,2.8,0,0,0,1.8,2l1.8.4h3.3c.7,0,.9.2.9.9s0,1,0,1.5,0,2.3,0,3.5-.1.9-.8,1a43.2,43.2,0,0,1-6.3.5,13.7,13.7,0,0,1-3.5-.5,7.6,7.6,0,0,1-5.7-6.2,23.9,23.9,0,0,1-.4-5c0-4.9,0-9.8,0-14.7Z" style="fill:#5f5f5f"/><path d="M162.7,27.4l.8-1.2a27,27,0,0,1,3.1-4,14.5,14.5,0,0,1,6.9-4.2,15.9,15.9,0,0,1,4.8-.4c.7,0,.9.3,1,1s0,1.5,0,2.3,0,3.2,0,4.8a3,3,0,0,1,0,.4.8.8,0,0,1-.8.8h-.7a14.9,14.9,0,0,0-6,.6,12.5,12.5,0,0,0-8.5,10.1,13.5,13.5,0,0,0-.2,2.4q0,13.9,0,27.8c0,.4,0,.9,0,1.3a1,1,0,0,1-1.1,1.1h-6.1c-1.2,0-1.5-.2-1.5-1.4q0-24,0-48a6.1,6.1,0,0,1,.1-1.1.7.7,0,0,1,.7-.6h6.5a.8.8,0,0,1,.9.9c0,.2,0,.5,0,.7q0,3.2,0,6.4,0,.1,0,.3Z" style="fill:#5f5f5f"/><path d="M223.2,44.8q0,11.9,0,23.7a7.8,7.8,0,0,1,0,1,.9.9,0,0,1-.9.9h-6.3c-1.2,0-1.4-.2-1.4-1.4q0-15.2,0-30.4c0-5.9,0-11.9,0-17.8a5.6,5.6,0,0,1,.1-.9.8.8,0,0,1,.8-.7h6.7c.8,0,1.1.3,1.1,1.1s0,2.8,0,4.2q0,10.2,0,20.3Z" style="fill:#5f5f5f"/><path d="M151.4,93.7H96.7c0-.4,0-.7,0-1.1,0-1.9,0-3.8,0-5.8s.1-1.2,1.2-1.2h52.7c.7,0,.9.2.9.9C151.4,88.9,151.4,91.3,151.4,93.7Z" style="fill:#ce1b20"/><text transform="translate(157.6 93.6)" style="font-size:12.607660293579102px;fill:#5f5f5f;font-family:MontserratAlternates-Regular, Montserrat Alternates">Global Technology </text></g></g></svg>