<svg xmlns="http://www.w3.org/2000/svg" viewBox="0 0 284.9 96.82"><title>Recurso 1</title><g id="Capa_2" data-name="Capa 2"><g id="Capa_1-2" data-name="Capa 1"><path d="M.6,51.1a27.2,27.2,0,0,1,.9-2.7,13,13,0,0,1,7.9-7.2,23.6,23.6,0,0,1,4.9-1.1l6.4-.9,5.2-.6,4-.6a3.7,3.7,0,0,0,3-2.7,8.5,8.5,0,0,0,.3-5,7.2,7.2,0,0,0-4.5-5.1,17.4,17.4,0,0,0-4.2-1,19.9,19.9,0,0,0-6.5.3,8.7,8.7,0,0,0-7.1,6.9L10.4,33c-.2.7-.4.9-1.2.9h-6c-.5,0-.8-.3-.8-.8a13.4,13.4,0,0,1,.1-1.5,17.6,17.6,0,0,1,1.7-6.1,13.2,13.2,0,0,1,7.9-6.6,34.4,34.4,0,0,1,7.1-1.7,26.4,26.4,0,0,1,15.6,2.8,11.6,11.6,0,0,1,5.7,6.1,14.5,14.5,0,0,1,.9,5.4q0,7,0,14c0,4.5,0,9.1,0,13.6a9.5,9.5,0,0,0,.1,1.8,2,2,0,0,0,2.3,1.8l1.5-.2h.7c.6,0,.8.2.8.8s0,.3,0,.4,0,2.6,0,3.9-.2,1.1-.9,1.3A13.1,13.1,0,0,1,38,69a5.9,5.9,0,0,1-4.3-4.8l-.3-1.4c0-.2-.1-.5-.1-.8l-.3.3a15,15,0,0,1-3,2.9,22.5,22.5,0,0,1-9.3,4.4,22.3,22.3,0,0,1-6.7.3,22.4,22.4,0,0,1-4.8-1A12.7,12.7,0,0,1,.7,60.1c-.1-.4-.2-.8-.3-1.2A16.4,16.4,0,0,1,.6,51.1Zm32.3-7.7-.4.2a9,9,0,0,1-2.9,1.1l-7.7,1.3-5.2.8A13.2,13.2,0,0,0,12,48.5a6.5,6.5,0,0,0-3.1,4.5,10,10,0,0,0,.1,4.1,6.8,6.8,0,0,0,5.5,5.6,17.3,17.3,0,0,0,5.8.2,16.8,16.8,0,0,0,10.2-5.1,8.4,8.4,0,0,0,2.5-6.1c0-2.6,0-5.3,0-7.9Z" style="fill:#5f5f5f"/><path d="M217.6,0c0,1.2,0,2.4,0,3.7s0,3.4,0,5.1-.1.8-.7.8h-7c-.6,0-.7-.1-.7-.7s0-.6,0-1V0Z" style="fill:#5f5f5f"/><path d="M94.3,91.5a.3.3,0,0,1,0-.1h0Z" style="fill:#eeb3b4"/><path d="M274,62.6v5.9a.4.4,0,0,1-.3.4l-3.6.7a10.9,10.9,0,0,1-5.4-.7,5.5,5.5,0,0,1-2.9-2.8,11.8,11.8,0,0,1-.9-3v-.6a2.1,2.1,0,0,0-.9.6,22.9,22.9,0,0,1-12.1,6.7,22.1,22.1,0,0,1-11.1-.7,12.7,12.7,0,0,1-9-10.1,17.4,17.4,0,0,1,.5-8.8,13.4,13.4,0,0,1,8.8-8.9,22.3,22.3,0,0,1,4.6-1l6.5-.9,6.1-.7,3-.4a3.8,3.8,0,0,0,3-2.7,8.4,8.4,0,0,0,.3-5,7.2,7.2,0,0,0-4.5-5.1,17.4,17.4,0,0,0-4.2-1,19.5,19.5,0,0,0-6.6.3,8.8,8.8,0,0,0-7.1,7.5,8.9,8.9,0,0,1-.2.9,1,1,0,0,1-1.1.9h-6c-.6,0-.8-.2-.8-.8s.1-.9.1-1.4a19.4,19.4,0,0,1,1.4-5.3A13.5,13.5,0,0,1,239,19a25.6,25.6,0,0,1,5.6-1.4,34.4,34.4,0,0,1,6.2-.5,25.7,25.7,0,0,1,10.6,2.5,13,13,0,0,1,5.1,4.2,11.3,11.3,0,0,1,2,5.5c.1.8.1,1.6.1,2.5q0,13.4,0,26.9c0,.6,0,1.3.1,1.9a4.1,4.1,0,0,0,.2.8,1.6,1.6,0,0,0,1.2,1.2,5.7,5.7,0,0,0,2.9,0l.7-.2A.2.2,0,0,1,274,62.6ZM260.2,43.3a11.7,11.7,0,0,1-3.3,1.3c-3.1.7-6.3,1.1-9.5,1.6l-4.1.7a12.2,12.2,0,0,0-4.7,2,6,6,0,0,0-2.5,3.9,10.4,10.4,0,0,0,.6,6,6.2,6.2,0,0,0,4.2,3.7l1.1.3a17.8,17.8,0,0,0,7.3-.1,17,17,0,0,0,8.1-4.7,8.7,8.7,0,0,0,2.7-6.3q0-3.9,0-7.9Z" style="fill:#5f5f5f"/><path d="M97.9,47.1h-.6c-.6-.1-.8-.3-.8-.9s0-1.4.1-2.1.3-3.6.5-5.3a29.9,29.9,0,0,1,4.2-12,18.1,18.1,0,0,1,11.5-8.3,22.2,22.2,0,0,1,5-.6,25.6,25.6,0,0,1,10.4,2,20.5,20.5,0,0,1,11,11.4,32.8,32.8,0,0,1,1.9,6.8,40.4,40.4,0,0,1,.7,9.2,28.6,28.6,0,0,1-3.5,13,19.8,19.8,0,0,1-14,10,29.2,29.2,0,0,1-6.8.4,23.5,23.5,0,0,1-4.9-.6A19.5,19.5,0,0,1,98.8,58.7a24.6,24.6,0,0,1-1.4-4.2v-.2c-.1-.5,0-.7.6-.7h7a.8.8,0,0,1,.8.6,25.2,25.2,0,0,0,1.1,2.4,12.5,12.5,0,0,0,8.5,6.5,15.6,15.6,0,0,0,6.9-.1,13.9,13.9,0,0,0,4.8-2,12.1,12.1,0,0,0,4.8-6.9,18.1,18.1,0,0,0,.7-4c0-.6.1-1.1.2-1.7v-.2c.1-.9-.1-1.2-1-1.2Zm33.9-6.8c.8,0,1-.3,1-1.1s-.1-.8-.2-1.2a17.2,17.2,0,0,0-1.8-5.5,14,14,0,0,0-15.4-6.7,11.8,11.8,0,0,0-8.7,7.5,22.2,22.2,0,0,0-1.1,4.6c-.1.5-.2,1-.2,1.6s.2.8.7.9Z" style="fill:#ce1c21"/><path d="M69.8,59.3l.2-.5L83.5,20l.2-.5a1.2,1.2,0,0,1,1.1-.8h7.6c.3,0,.5.2.4.5a3.8,3.8,0,0,1-.2.9L86.8,35.3l-12,31.8v.2c-.4,1-.7,1.2-1.8,1.2H66.7c-1.1,0-1.6-.1-2-1.4L60.9,56.9,48.8,23.3l-1.2-3.2a4.2,4.2,0,0,1-.2-.8.5.5,0,0,1,.5-.6H56a1.2,1.2,0,0,1,1,.7l.3.7,9,28.4,3.1,9.9Z" style="fill:#5f5f5f"/><path d="M184.6,43.5q0-8.2,0-16.3a5.7,5.7,0,0,0,0-.7.8.8,0,0,0-.8-.8h-5.2a.6.6,0,0,1-.6-.6,1.9,1.9,0,0,1,0-.3c0-1.7,0-3.5,0-5.2s.2-.9.9-.9h5.1c.5-.1.6-.2.7-.7s0-.5,0-.8q0-5.4,0-10.9a5.4,5.4,0,0,1,0-.7.9.9,0,0,1,.9-.9h6.1c1.2,0,1.5.2,1.5,1.4V17.3c0,.1,0,.2,0,.2s.3,1.2,1.2,1.2h5.6c1.1,0,1.2.1,1.2,1.2s0,3.1,0,4.7c0,.1,0,.1,0,.2s-.2,1-1,1h-6.3a.7.7,0,0,0-.7.6,4.5,4.5,0,0,0,0,.6q0,15.5,0,31.1a6.5,6.5,0,0,0,.2,1.6,2.7,2.7,0,0,0,1.8,1.9l1.8.4h3.3c.7,0,.9.2.9.9s0,1,0,1.5,0,2.3,0,3.4-.1.9-.8,1a42.2,42.2,0,0,1-6.2.5,13.4,13.4,0,0,1-3.4-.5,7.5,7.5,0,0,1-5.6-6,23.3,23.3,0,0,1-.4-4.9c0-4.8,0-9.6,0-14.4Z" style="fill:#5f5f5f"/><path d="M158.7,26.8l.8-1.1a26.3,26.3,0,0,1,3-3.9,14.2,14.2,0,0,1,6.7-4.1,15.5,15.5,0,0,1,4.7-.4c.7,0,.9.3.9,1s0,1.5,0,2.3,0,3.1,0,4.7a2.9,2.9,0,0,1,0,.4.8.8,0,0,1-.8.8h-.7a14.5,14.5,0,0,0-5.8.6,12.2,12.2,0,0,0-8.3,9.9,13.2,13.2,0,0,0-.2,2.4q0,13.6,0,27.1c0,.4,0,.9,0,1.3a1,1,0,0,1-1.1,1H152c-1.2,0-1.4-.2-1.4-1.4q0-23.4,0-46.8a5.9,5.9,0,0,1,.1-1.1.7.7,0,0,1,.7-.6h6.4a.8.8,0,0,1,.9.8c0,.2,0,.5,0,.7q0,3.1,0,6.2,0,.1,0,.3Z" style="fill:#5f5f5f"/><path d="M217.6,43.7q0,11.6,0,23.1a7.6,7.6,0,0,1,0,1,.9.9,0,0,1-.9.8h-6.1c-1.2,0-1.4-.2-1.4-1.4q0-14.8,0-29.6c0-5.8,0-11.6,0-17.3a5.5,5.5,0,0,1,.1-.9.8.8,0,0,1,.8-.7h6.5c.8,0,1.1.3,1.1,1.1s0,2.7,0,4.1q0,9.9,0,19.8Z" style="fill:#5f5f5f"/><path d="M147.6,91.3H94.3c0-.4,0-.7,0-1.1,0-1.9,0-3.8,0-5.6s.1-1.2,1.2-1.2h51.4c.6,0,.9.2.9.8C147.7,86.6,147.7,89,147.6,91.3Z" style="fill:#ce1b20"/></g></g></svg>