<svg xmlns="http://www.w3.org/2000/svg" xmlns:xlink="http://www.w3.org/1999/xlink" viewBox="0 0 400 240"><defs><linearGradient id="Nueva_muestra_de_degradado_5" x1="200" y1="390.56" x2="200" y2="106.46" gradientUnits="userSpaceOnUse"><stop offset="0" stop-color="#efd2dd"/><stop offset="0.49" stop-color="#f4ecf5"/><stop offset="1" stop-color="#fff"/></linearGradient><linearGradient id="Nueva_muestra_de_degradado_1" x1="278" y1="408.11" x2="278" y2="323.82" gradientUnits="userSpaceOnUse"><stop offset="0" stop-color="#aa0d0b"/><stop offset="0.57" stop-color="#d37686"/><stop offset="1" stop-color="#f1c1df"/></linearGradient><linearGradient id="Nueva_muestra_de_degradado_1-2" x1="223" y1="404.45" x2="223" y2="358.16" xlink:href="#Nueva_muestra_de_degradado_1"/><linearGradient id="Nueva_muestra_de_degradado_1-3" x1="156" y1="382.36" x2="391.19" y2="382.36" xlink:href="#Nueva_muestra_de_degradado_1"/><linearGradient id="Nueva_muestra_de_degradado_1-4" x1="156" y1="390.5" x2="400" y2="390.5" xlink:href="#Nueva_muestra_de_degradado_1"/><linearGradient id="Nueva_muestra_de_degradado_4" x1="333.52" y1="368.28" x2="391.38" y2="282.49" gradientUnits="userSpaceOnUse"><stop offset="0" stop-color="#efd2dd"/><stop offset="1" stop-color="#f4ecf5"/></linearGradient><linearGradient id="Nueva_muestra_de_degradado_1-5" x1="378.7" y1="298.78" x2="348.04" y2="265.78" xlink:href="#Nueva_muestra_de_degradado_1"/><linearGradient id="Nueva_muestra_de_degradado_1-6" x1="343.72" y1="352.61" x2="359.33" y2="335.88" xlink:href="#Nueva_muestra_de_degradado_1"/><linearGradient id="Nueva_muestra_de_degradado_3" x1="352" y1="198.02" x2="404.77" y2="63.76" gradientUnits="userSpaceOnUse"><stop offset="0" stop-color="#e7a6b8"/><stop offset="1" stop-color="#f4ecf5"/></linearGradient><linearGradient id="Degradado_sin_nombre_92" x1="209.24" y1="312.57" x2="222.24" y2="64.42" gradientUnits="userSpaceOnUse"><stop offset="0.08" stop-color="#ea5b62"/><stop offset="0.45" stop-color="#f0cbdf"/><stop offset="0.92" stop-color="#f4fbfd"/></linearGradient><linearGradient id="Nueva_muestra_de_degradado_1-7" x1="180.35" y1="393.63" x2="238.35" y2="215.63" xlink:href="#Nueva_muestra_de_degradado_1"/><linearGradient id="Nueva_muestra_de_degradado_1-8" x1="108.74" y1="222.73" x2="113.74" y2="381.73" xlink:href="#Nueva_muestra_de_degradado_1"/><linearGradient id="Nueva_muestra_de_degradado_2" x1="67.5" y1="251.75" x2="260.5" y2="251.75" gradientUnits="userSpaceOnUse"><stop offset="0" stop-color="#c85552"/><stop offset="1" stop-color="#f1c1df"/></linearGradient><linearGradient id="Nueva_muestra_de_degradado_1-9" x1="205.79" y1="369.62" x2="297.46" y2="254.8" xlink:href="#Nueva_muestra_de_degradado_1"/><linearGradient id="Nueva_muestra_de_degradado_3-2" x1="330.25" y1="253.57" x2="330.25" y2="152.55" xlink:href="#Nueva_muestra_de_degradado_3"/><linearGradient id="Nueva_muestra_de_degradado_3-3" x1="67.5" y1="141" x2="321.84" y2="141" xlink:href="#Nueva_muestra_de_degradado_3"/><linearGradient id="Nueva_muestra_de_degradado_3-4" x1="121.6" y1="178.5" x2="260.5" y2="178.5" xlink:href="#Nueva_muestra_de_degradado_3"/><linearGradient id="Nueva_muestra_de_degradado_2-2" x1="68" y1="184.25" x2="172.83" y2="184.25" xlink:href="#Nueva_muestra_de_degradado_2"/><linearGradient id="Nueva_muestra_de_degradado_4-2" x1="172.33" y1="136.75" x2="321.84" y2="136.75" xlink:href="#Nueva_muestra_de_degradado_4"/><linearGradient id="Nueva_muestra_de_degradado_3-5" x1="172.33" y1="178.31" x2="321.84" y2="178.31" xlink:href="#Nueva_muestra_de_degradado_3"/><linearGradient id="Nueva_muestra_de_degradado_3-6" x1="172.33" y1="154.56" x2="321.84" y2="154.56" xlink:href="#Nueva_muestra_de_degradado_3"/><linearGradient id="Nueva_muestra_de_degradado_3-7" x1="175.76" y1="104.81" x2="244.13" y2="194.96" xlink:href="#Nueva_muestra_de_degradado_3"/><linearGradient id="Nueva_muestra_de_degradado_3-8" x1="172.33" y1="86.75" x2="253" y2="86.75" xlink:href="#Nueva_muestra_de_degradado_3"/><linearGradient id="Nueva_muestra_de_degradado_4-3" x1="172.33" y1="117.5" x2="321.84" y2="117.5" xlink:href="#Nueva_muestra_de_degradado_4"/><linearGradient id="Nueva_muestra_de_degradado_1-10" x1="78" y1="361.24" x2="78" y2="231.59" xlink:href="#Nueva_muestra_de_degradado_1"/><linearGradient id="Nueva_muestra_de_degradado_1-11" x1="0" y1="318.5" x2="67.5" y2="318.5" xlink:href="#Nueva_muestra_de_degradado_1"/><linearGradient id="Nueva_muestra_de_degradado_1-12" x1="33.75" y1="384.44" x2="33.75" y2="135.19" xlink:href="#Nueva_muestra_de_degradado_1"/><linearGradient id="Nueva_muestra_de_degradado_4-4" x1="0" y1="162.56" x2="161.45" y2="162.56" xlink:href="#Nueva_muestra_de_degradado_4"/><linearGradient id="Nueva_muestra_de_degradado_3-9" x1="33.23" y1="186.97" x2="20.56" y2="100.97" xlink:href="#Nueva_muestra_de_degradado_3"/><linearGradient id="Nueva_muestra_de_degradado_1-13" x1="0" y1="301.54" x2="54.21" y2="301.54" xlink:href="#Nueva_muestra_de_degradado_1"/><linearGradient id="Nueva_muestra_de_degradado_2-3" x1="0" y1="259.7" x2="54.21" y2="259.7" xlink:href="#Nueva_muestra_de_degradado_2"/><linearGradient id="Nueva_muestra_de_degradado_1-14" x1="0" y1="334.56" x2="54.21" y2="334.56" xlink:href="#Nueva_muestra_de_degradado_1"/><linearGradient id="Nueva_muestra_de_degradado_2-4" x1="260.5" y1="233.59" x2="400" y2="233.59" xlink:href="#Nueva_muestra_de_degradado_2"/><linearGradient id="Nueva_muestra_de_degradado_2-5" x1="290" y1="262.51" x2="400" y2="262.51" xlink:href="#Nueva_muestra_de_degradado_2"/><linearGradient id="linear-gradient" x1="127.97" y1="142.15" x2="126.58" y2="69.93" gradientUnits="userSpaceOnUse"><stop offset="0" stop-color="#99d9e8"/><stop offset="1" stop-color="#d6f0f6"/></linearGradient><linearGradient id="Nueva_muestra_de_degradado_3-10" x1="326.5" y1="142.94" x2="326.5" y2="57.08" xlink:href="#Nueva_muestra_de_degradado_3"/><linearGradient id="Nueva_muestra_de_degradado_4-5" x1="124.62" y1="129.2" x2="6.12" y2="34.2" xlink:href="#Nueva_muestra_de_degradado_4"/><linearGradient id="Nueva_muestra_de_degradado_3-11" x1="351.19" y1="117.08" x2="351.19" y2="14.44" xlink:href="#Nueva_muestra_de_degradado_3"/><linearGradient id="Nueva_muestra_de_degradado_4-6" x1="189.78" y1="110.34" x2="208.84" y2="2.25" xlink:href="#Nueva_muestra_de_degradado_4"/><linearGradient id="Nueva_muestra_de_degradado_4-7" x1="315.51" y1="89.74" x2="260.17" y2="2.11" xlink:href="#Nueva_muestra_de_degradado_4"/><linearGradient id="Nueva_muestra_de_degradado_4-8" x1="171.69" y1="34.64" x2="101.74" y2="34.64" xlink:href="#Nueva_muestra_de_degradado_4"/><linearGradient id="Nueva_muestra_de_degradado_3-12" x1="0" y1="189.93" x2="141.47" y2="189.93" xlink:href="#Nueva_muestra_de_degradado_3"/><linearGradient id="Nueva_muestra_de_degradado_1-15" x1="49.09" y1="351.26" x2="290" y2="351.26" xlink:href="#Nueva_muestra_de_degradado_1"/><linearGradient id="Nueva_muestra_de_degradado_1-16" x1="343.61" y1="396.23" x2="372.33" y2="296.06" xlink:href="#Nueva_muestra_de_degradado_1"/></defs><title>bg_gaia</title><g style="isolation:isolate"><g id="Capa_2" data-name="Capa 2"><g id="bg"><rect y="0.5" width="400" height="400" style="fill:url(#Nueva_muestra_de_degradado_5)"/><polygon points="400 400 400 222.5 156 400 400 400" style="fill:url(#Nueva_muestra_de_degradado_1)"/><polygon points="290 302.5 156 400 290 400 290 302.5" style="fill:url(#Nueva_muestra_de_degradado_1-2)"/><polygon points="204.5 364.7 156 400 391.2 400 204.5 364.7" style="mix-blend-mode:multiply;fill:url(#Nueva_muestra_de_degradado_1-3)"/><polygon points="400 400 290.5 381 156 400 400 400" style="opacity:0.9;fill:url(#Nueva_muestra_de_degradado_1-4)"/><polygon points="400 400 400 222.5 290 302.5 400 400" style="mix-blend-mode:multiply;fill:url(#Nueva_muestra_de_degradado_4)"/><polygon points="400 222.5 290 302.5 344 350.4 400 222.5" style="mix-blend-mode:multiply;fill:url(#Nueva_muestra_de_degradado_1-5)"/><polygon points="353 330 290 302.5 400 400 353 330" style="opacity:0.6000000000000001;mix-blend-mode:multiply;fill:url(#Nueva_muestra_de_degradado_1-6)"/><polygon points="321.8 128.1 400 222.5 400 0 321.8 128.1" style="fill:url(#Nueva_muestra_de_degradado_3)"/><polygon points="29 238.5 144.5 379 400 185 253 45 29 238.5" style="mix-blend-mode:multiply;fill:url(#Degradado_sin_nombre_92)"/><polygon points="67.5 237 156 400 400 222.5 253 45 67.5 237" style="fill:url(#Nueva_muestra_de_degradado_1-7)"/><polygon points="67.5 237 156 400 145.5 233.6 67.5 237" style="fill:url(#Nueva_muestra_de_degradado_1-8)"/><polygon points="67.5 237 148 275 260.5 228.5 67.5 237" style="opacity:0.8;fill:url(#Nueva_muestra_de_degradado_2)"/><polygon points="156 400 400 222.5 321.8 128.1 156 400" style="fill:url(#Nueva_muestra_de_degradado_1-9)"/><polygon points="260.5 228.5 400 222.5 321.8 128.1 260.5 228.5" style="fill:url(#Nueva_muestra_de_degradado_3-2)"/><polygon points="260.5 228.5 321.8 128.1 253 45 67.5 237 260.5 228.5" style="fill:url(#Nueva_muestra_de_degradado_3-3)"/><polygon points="260.5 228.5 172.3 128.5 121.6 181 260.5 228.5" style="fill:url(#Nueva_muestra_de_degradado_3-4)"/><polygon points="68 238.5 145.5 190.5 172.8 130 68 238.5" style="fill:url(#Nueva_muestra_de_degradado_2-2)"/><polygon points="260.5 228.5 321.8 128.1 253 45 172.3 128.5 260.5 228.5" style="fill:url(#Nueva_muestra_de_degradado_4-2)"/><polygon points="260.5 228.5 321.8 128.1 172.3 128.5 260.5 228.5" style="fill:url(#Nueva_muestra_de_degradado_3-5)"/><polygon points="321.8 128.1 172.3 128.5 218.6 181 321.8 128.1" style="opacity:0.2;fill:url(#Nueva_muestra_de_degradado_3-6)"/><polygon points="260.5 228.5 244.8 167.6 172.3 128.5 260.5 228.5" style="fill:url(#Nueva_muestra_de_degradado_3-7)"/><polygon points="253 45 172.3 128.5 238.5 128.3 253 45" style="fill:url(#Nueva_muestra_de_degradado_3-8)"/><polygon points="321.8 128.1 242.5 106.5 172.3 128.5 321.8 128.1" style="opacity:0.2;fill:url(#Nueva_muestra_de_degradado_4-3)"/><polygon points="67.5 237 0 400 156 400 67.5 237" style="opacity:0.8;fill:url(#Nueva_muestra_de_degradado_1-10)"/><polygon points="67.5 237 0 400 49 351.5 67.5 237" style="opacity:0.5;fill:url(#Nueva_muestra_de_degradado_1-11)"/><polygon points="67.5 237 0 86.6 0 400 67.5 237" style="mix-blend-mode:multiply;fill:url(#Nueva_muestra_de_degradado_1-12)"/><polygon points="156 400 25 340 0 400 156 400" style="fill:#b24b4b;opacity:0.8;mix-blend-mode:multiply"/><polygon points="161.5 124.1 0 86.6 29 238.5 161.5 124.1" style="fill:url(#Nueva_muestra_de_degradado_4-4)"/><polygon points="161.5 124.1 0 86.6 14.4 161.9 161.5 124.1" style="fill:#fafdfe;opacity:0.5"/><polygon points="46.8 153.6 0 86.6 29 238.5 46.8 153.6" style="fill:url(#Nueva_muestra_de_degradado_3-9)"/><polygon points="54.2 269.1 0 203.1 0 400 54.2 269.1" style="fill:url(#Nueva_muestra_de_degradado_1-13)"/><polygon points="54.2 269.1 0 203.1 34.7 316.3 54.2 269.1" style="fill:url(#Nueva_muestra_de_degradado_2-3)"/><polygon points="54.2 269.1 24.6 285.4 0 337.3 0 400 54.2 269.1" style="opacity:0.6000000000000001;mix-blend-mode:multiply;fill:url(#Nueva_muestra_de_degradado_1-14)"/><polygon points="260.5 228.5 331.1 244.7 400 222.5 260.5 228.5" style="fill:url(#Nueva_muestra_de_degradado_2-4)"/><polygon points="331.1 244.7 290 302.5 400 222.5 331.1 244.7" style="fill:url(#Nueva_muestra_de_degradado_2-5)"/><polygon points="0 86.6 253 45 161.5 124.1 0 86.6" style="opacity:0.2;fill:url(#linear-gradient)"/><polygon points="253 45 400 99.6 400 185 253 45" style="opacity:0.5;fill:url(#Nueva_muestra_de_degradado_3-10)"/><polygon points="161.5 124.1 35 0 0 0 0 86.6 161.5 124.1" style="opacity:0.30000000000000004;fill:url(#Nueva_muestra_de_degradado_4-5)"/><polygon points="302.4 0 400 0 381.4 167.4 302.4 0" style="opacity:0.30000000000000004;fill:url(#Nueva_muestra_de_degradado_3-11)"/><polygon points="94.3 108.5 126.8 0 305 0 161.5 124.1 94.3 108.5" style="opacity:0.1;fill:url(#Nueva_muestra_de_degradado_4-6)"/><polygon points="253 45 213.3 0 304.3 0 338.6 76.8 253 45" style="opacity:0.30000000000000004;fill:url(#Nueva_muestra_de_degradado_4-7)"/><polygon points="253 45 35 0 105.6 69.3 253 45" style="opacity:0.1;fill:url(#Nueva_muestra_de_degradado_4-8)"/><polygon points="0 203.1 141.5 141.4 29.1 238.5 0 203.1" style="opacity:0.6000000000000001;mix-blend-mode:multiply;fill:url(#Nueva_muestra_de_degradado_3-12)"/><polygon points="49.1 351.1 290 302.5 156 400 49.1 351.1" style="opacity:0.4;fill:url(#Nueva_muestra_de_degradado_1-15)"/><polygon points="290.5 381 400 304 400 400 290.5 381" style="opacity:0.5;fill:url(#Nueva_muestra_de_degradado_1-16)"/></g></g></g></svg>